<svg width="99" height="99" viewBox="0 0 99 99" fill="none" xmlns="http://www.w3.org/2000/svg">
<path d="M61.7719 12.4534L65.7319 5.30893C65.7826 5.21738 65.8147 5.11676 65.8264 5.01279C65.8382 4.90883 65.8294 4.80357 65.8004 4.70302C65.7715 4.60248 65.7231 4.50861 65.6579 4.42678C65.5927 4.34495 65.512 4.27677 65.4205 4.22612C65.3289 4.17547 65.2283 4.14335 65.1243 4.13159C65.0204 4.11983 64.9151 4.12866 64.8146 4.15758C64.714 4.1865 64.6201 4.23494 64.5383 4.30014C64.4565 4.36533 64.3883 4.44601 64.3377 4.53756L60.3364 11.7563C56.9207 10.2587 53.2317 9.48552 49.5021 9.48552C45.7725 9.48552 42.0835 10.2587 38.6678 11.7563L34.6665 4.53756C34.5642 4.35157 34.3923 4.21384 34.1884 4.15466C33.9846 4.09548 33.7656 4.1197 33.5796 4.22199C33.3936 4.32428 33.2559 4.49627 33.1967 4.70011C33.1375 4.90395 33.1617 5.12295 33.264 5.30893L37.224 12.4534C33.4562 14.3117 30.2728 17.1716 28.023 20.7195C25.7732 24.2675 24.5437 28.3664 24.4695 32.5669H74.5347C74.4597 28.3656 73.229 24.266 70.9777 20.718C68.7263 17.17 65.5413 14.3106 61.7719 12.4534ZM37.95 23.4053C37.5362 23.4053 37.1317 23.2825 36.7877 23.0526C36.4437 22.8226 36.1756 22.4957 36.0175 22.1133C35.8593 21.7309 35.8181 21.3102 35.8991 20.9044C35.9802 20.4986 36.1798 20.126 36.4727 19.8336C36.7656 19.5413 37.1386 19.3425 37.5446 19.2622C37.9505 19.182 38.3711 19.224 38.7532 19.3829C39.1353 19.5419 39.4616 19.8106 39.6909 20.155C39.9203 20.4995 40.0422 20.9042 40.0414 21.3181C40.0403 21.872 39.8195 22.4029 39.4274 22.7942C39.0353 23.1855 38.504 23.4053 37.95 23.4053ZM61.0583 23.4053C60.6445 23.4053 60.24 23.2825 59.8959 23.0526C59.5519 22.8226 59.2839 22.4957 59.1257 22.1133C58.9675 21.7309 58.9264 21.3102 59.0074 20.9044C59.0884 20.4986 59.288 20.126 59.5809 19.8336C59.8738 19.5413 60.2468 19.3425 60.6528 19.2622C61.0588 19.182 61.4794 19.224 61.8615 19.3829C62.2435 19.5419 62.5699 19.8106 62.7992 20.155C63.0285 20.4995 63.1505 20.9042 63.1497 21.3181C63.1486 21.872 62.9277 22.4029 62.5356 22.7942C62.1436 23.1855 61.6122 23.4053 61.0583 23.4053ZM24.4613 70.8304C24.4602 71.6268 24.6163 72.4156 24.9207 73.1516C25.2251 73.8875 25.6718 74.5562 26.2351 75.1191C26.7985 75.6821 27.4674 76.1283 28.2036 76.4322C28.9397 76.7361 29.7286 76.8917 30.525 76.8901H34.5387V89.2651C34.5387 90.7535 35.1299 92.1809 36.1824 93.2334C37.2349 94.2859 38.6623 94.8771 40.1507 94.8771C41.6391 94.8771 43.0666 94.2859 44.119 93.2334C45.1715 92.1809 45.7628 90.7535 45.7628 89.2651V76.8901H53.2455V89.2651C53.2455 90.7529 53.8366 92.1798 54.8887 93.2319C55.9407 94.284 57.3677 94.8751 58.8555 94.8751C60.3434 94.8751 61.7703 94.284 62.8224 93.2319C63.8745 92.1798 64.4655 90.7529 64.4655 89.2651V76.8901H68.4833C69.2786 76.8906 70.0663 76.7343 70.8013 76.4302C71.5362 76.1261 72.204 75.6801 72.7664 75.1176C73.3288 74.5552 73.7748 73.8875 74.0789 73.1525C74.3831 72.4176 74.5393 71.6299 74.5388 70.8346V34.5469H24.4613V70.8304ZM16.7599 33.5817C15.272 33.5839 13.8457 34.1762 12.794 35.2287C11.7423 36.2812 11.151 37.7079 11.1499 39.1958V62.5804C11.1499 63.3171 11.295 64.0466 11.5769 64.7273C11.8589 65.4079 12.2721 66.0264 12.793 66.5473C13.314 67.0682 13.9324 67.4815 14.613 67.7634C15.2937 68.0453 16.0232 68.1904 16.7599 68.1904C17.4966 68.1904 18.2261 68.0453 18.9068 67.7634C19.5874 67.4815 20.2058 67.0682 20.7268 66.5473C21.2477 66.0264 21.6609 65.4079 21.9429 64.7273C22.2248 64.0466 22.3699 63.3171 22.3699 62.5804V39.1958C22.3677 37.7086 21.776 36.283 20.7244 35.2313C19.6728 34.1797 18.2471 33.588 16.7599 33.5858M82.2319 33.5858C80.744 33.588 79.3177 34.1803 78.266 35.2328C77.2143 36.2853 76.623 37.712 76.6219 39.1999V62.5846C76.6219 63.3213 76.767 64.0508 77.0489 64.7314C77.3309 65.412 77.7441 66.0305 78.265 66.5514C78.786 67.0724 79.4044 67.4856 80.0851 67.7675C80.7657 68.0494 81.4952 68.1946 82.2319 68.1946C82.9686 68.1946 83.6981 68.0494 84.3788 67.7675C85.0594 67.4856 85.6778 67.0724 86.1988 66.5514C86.7197 66.0305 87.1329 65.412 87.4149 64.7314C87.6968 64.0508 87.8419 63.3213 87.8419 62.5846V39.1958C87.8397 37.7086 87.248 36.283 86.1964 35.2313C85.1448 34.1797 83.7191 33.588 82.2319 33.5858Z" fill="#1E364A"/>
</svg>
