<svg width="34" height="34" viewBox="0 0 34 34" fill="none" xmlns="http://www.w3.org/2000/svg">
<path d="M33.5 17C33.5 26.12 26.12 33.5 17 33.5C7.88 33.5 0.5 26.12 0.5 17C0.5 7.88 7.88 0.5 17 0.5C26.12 0.5 33.5 7.88 33.5 17ZM18.5 5.09C21.695 5.495 24.605 7.175 26.555 9.74L29.165 8.24C27.9324 6.50213 26.3438 5.04678 24.5049 3.97083C22.6659 2.89488 20.6189 2.22302 18.5 2V5.09ZM4.835 8.24L7.445 9.74C8.41182 8.46911 9.62199 7.40342 11.0049 6.60507C12.3879 5.80672 13.9159 5.29168 15.5 5.09V2C13.3811 2.22302 11.3341 2.89488 9.49513 3.97083C7.65619 5.04678 6.06755 6.50213 4.835 8.24ZM3.335 23.15L5.93 21.65C5.31364 20.1772 4.99623 18.5966 4.99623 17C4.99623 15.4034 5.31364 13.8228 5.93 12.35L3.335 10.85C2.45248 12.7802 1.99571 14.8777 1.99571 17C1.99571 19.1223 2.45248 21.2198 3.335 23.15ZM15.5 28.91C13.9159 28.7083 12.3879 28.1933 11.0049 27.3949C9.62199 26.5966 8.41182 25.5309 7.445 24.26L4.835 25.76C6.06755 27.4979 7.65619 28.9532 9.49513 30.0292C11.3341 31.1051 13.3811 31.777 15.5 32V28.91ZM29.165 25.76L26.555 24.26C25.5882 25.5309 24.378 26.5966 22.9951 27.3949C21.6121 28.1933 20.0841 28.7083 18.5 28.91V31.91C22.775 31.475 26.66 29.24 29.165 25.76ZM30.665 23.15C32.45 19.25 32.45 14.75 30.665 10.85L28.07 12.35C28.6864 13.8228 29.0038 15.4034 29.0038 17C29.0038 18.5966 28.6864 20.1772 28.07 21.65L30.665 23.15ZM21.5 17L17 9.5L12.5 17L17 24.5L21.5 17Z" fill="url(#paint0_linear_8_43)"/>
<defs>
<linearGradient id="paint0_linear_8_43" x1="17" y1="0.5" x2="17" y2="33.5" gradientUnits="userSpaceOnUse">
<stop stop-color="white"/>
<stop offset="1" stop-color="#969696"/>
</linearGradient>
</defs>
</svg>
