<svg width="43" height="43" viewBox="0 0 43 43" fill="none" xmlns="http://www.w3.org/2000/svg">
<path d="M17.865 35.9586V25.7514H26.1258V35.9586C26.1258 37.0814 27.0552 38 28.191 38H34.3866C35.5225 38 36.4518 37.0814 36.4518 35.9586V21.6686H39.9627C40.9127 21.6686 41.367 20.505 40.6442 19.8925L23.3791 4.52056C22.5943 3.82648 21.3965 3.82648 20.6117 4.52056L3.34665 19.8925C2.64448 20.505 3.07817 21.6686 4.02816 21.6686H7.53901V35.9586C7.53901 37.0814 8.46835 38 9.60421 38H15.7998C16.9357 38 17.865 37.0814 17.865 35.9586Z" fill="url(#paint0_linear_81_2)"/>
<defs>
<linearGradient id="paint0_linear_81_2" x1="22" y1="4" x2="22" y2="38" gradientUnits="userSpaceOnUse">
<stop stop-color="white"/>
<stop offset="1" stop-color="#969696"/>
</linearGradient>
</defs>
</svg>
