<svg width="67" height="80" viewBox="0 0 67 80" fill="none" xmlns="http://www.w3.org/2000/svg">
<path d="M55.5938 76.225C51.3063 80.3812 46.6251 79.725 42.1189 77.7562C37.3501 75.7437 32.9751 75.6562 27.9439 77.7562C21.6439 80.4687 18.3189 79.6812 14.5564 76.225C-6.79364 54.2187 -3.64364 20.7062 20.5939 19.4812C26.5001 19.7875 30.6126 22.7187 34.0689 22.9812C39.2314 21.9312 44.1751 18.9125 49.6876 19.3062C56.2938 19.8312 61.2814 22.4562 64.5626 27.1812C50.9126 35.3625 54.1501 53.3437 66.6626 58.375C64.1688 64.9375 60.9314 71.4562 55.5501 76.2687L55.5938 76.225ZM33.6314 19.2187C32.9751 9.4625 40.8939 1.4125 49.9939 0.625C51.2626 11.9125 39.7564 20.3125 33.6314 19.2187Z" fill="#1E364A"/>
</svg>
