<svg width="38" height="38" viewBox="0 0 38 38" fill="none" xmlns="http://www.w3.org/2000/svg">
<path d="M30.8747 19C30.8747 18.6358 30.8589 18.2875 30.8272 17.9233L33.7722 15.6908C34.4055 15.2158 34.5797 14.3292 34.1839 13.6325L31.223 8.51832C31.0332 8.18295 30.7261 7.92955 30.3608 7.8068C29.9955 7.68406 29.5977 7.70063 29.2439 7.85332L25.8397 9.29416C25.2539 8.88249 24.6364 8.51832 23.9872 8.21749L23.528 4.55999C23.433 3.76832 22.7522 3.16666 21.9605 3.16666H16.0547C15.2472 3.16666 14.5664 3.76832 14.4714 4.55999L14.0122 8.21749C13.363 8.51832 12.7455 8.88249 12.1597 9.29416L8.75555 7.85332C8.02721 7.53666 7.17221 7.82166 6.77638 8.51832L3.81555 13.6483C3.41971 14.345 3.59388 15.2158 4.22721 15.7067L7.17221 17.9392C7.10619 18.6501 7.10619 19.3657 7.17221 20.0767L4.22721 22.3092C3.59388 22.7842 3.41971 23.6708 3.81555 24.3675L6.77638 29.4817C7.17221 30.1783 8.02721 30.4633 8.75555 30.1467L12.1597 28.7058C12.7455 29.1175 13.363 29.4817 14.0122 29.7825L14.4714 33.44C14.5664 34.2317 15.2472 34.8333 16.0389 34.8333H21.9447C22.7364 34.8333 23.4172 34.2317 23.5122 33.44L23.9714 29.7825C24.6205 29.4817 25.238 29.1175 25.8239 28.7058L29.228 30.1467C29.9564 30.4633 30.8114 30.1783 31.2072 29.4817L34.168 24.3675C34.5639 23.6708 34.3897 22.8 33.7564 22.3092L30.8114 20.0767C30.8589 19.7125 30.8747 19.3642 30.8747 19ZM19.063 24.5417C16.0072 24.5417 13.5214 22.0558 13.5214 19C13.5214 15.9442 16.0072 13.4583 19.063 13.4583C22.1189 13.4583 24.6047 15.9442 24.6047 19C24.6047 22.0558 22.1189 24.5417 19.063 24.5417Z" fill="url(#paint0_linear_96_568)"/>
<defs>
<linearGradient id="paint0_linear_96_568" x1="18.9997" y1="3.16666" x2="18.9997" y2="34.8333" gradientUnits="userSpaceOnUse">
<stop stop-color="white"/>
<stop offset="1" stop-color="#969696"/>
</linearGradient>
</defs>
</svg>
