<svg width="31" height="31" viewBox="0 0 31 31" fill="none" xmlns="http://www.w3.org/2000/svg">
<path fill-rule="evenodd" clip-rule="evenodd" d="M15.4997 0C6.98505 0 0.0830078 6.9013 0.0830078 15.415C0.0830078 23.9287 6.98505 30.83 15.4997 30.83C24.0143 30.83 30.9163 23.9287 30.9163 15.415C30.9163 6.9013 24.0143 0 15.4997 0ZM10.1038 11.5612C10.1038 10.8527 10.2434 10.1512 10.5146 9.49658C10.7857 8.842 11.1832 8.24723 11.6842 7.74623C12.1853 7.24524 12.7801 6.84783 13.4348 6.57669C14.0894 6.30555 14.7911 6.166 15.4997 6.166C16.2083 6.166 16.9099 6.30555 17.5646 6.57669C18.2192 6.84783 18.8141 7.24524 19.3151 7.74623C19.8162 8.24723 20.2136 8.842 20.4848 9.49658C20.7559 10.1512 20.8955 10.8527 20.8955 11.5612C20.8955 12.9922 20.327 14.3645 19.3151 15.3763C18.3032 16.3881 16.9307 16.9565 15.4997 16.9565C14.0686 16.9565 12.6962 16.3881 11.6842 15.3763C10.6723 14.3645 10.1038 12.9922 10.1038 11.5612ZM25.1474 23.0978C23.993 24.5489 22.5258 25.7207 20.8553 26.5257C19.1848 27.3307 17.3541 27.7482 15.4997 27.747C13.6453 27.7482 11.8146 27.3307 10.144 26.5257C8.47352 25.7207 7.00634 24.5489 5.85193 23.0978C8.35097 21.3051 11.7611 20.0395 15.4997 20.0395C19.2382 20.0395 22.6484 21.3051 25.1474 23.0978Z" fill="url(#paint0_linear_8_25)"/>
<defs>
<linearGradient id="paint0_linear_8_25" x1="15.4997" y1="0" x2="15.4997" y2="30.83" gradientUnits="userSpaceOnUse">
<stop stop-color="white"/>
<stop offset="1" stop-color="#969696"/>
</linearGradient>
</defs>
</svg>
